<svg width="1200" height="630" viewBox="0 0 1200 630" fill="none" xmlns="http://www.w3.org/2000/svg">
  <defs>
    <linearGradient id="bgBurst" x1="0" y1="0" x2="1200" y2="630" gradientUnits="userSpaceOnUse">
      <stop stop-color="#0E1A2B"/>
      <stop offset="1" stop-color="#112E35"/>
    </linearGradient>
    <linearGradient id="termBurst" x1="0" y1="0" x2="0" y2="1">
      <stop stop-color="#74F0D3"/>
      <stop offset="1" stop-color="#3BB89B"/>
    </linearGradient>
    <linearGradient id="delayBurst" x1="0" y1="0" x2="0" y2="1">
      <stop stop-color="#22384A"/>
      <stop offset="1" stop-color="#1A2A39"/>
    </linearGradient>
    <marker id="arrowBurst" markerWidth="10" markerHeight="10" refX="9" refY="5" orient="auto">
      <path d="M0,0 L10,5 L0,10 z" fill="#9EB7C7"/>
    </marker>
  </defs>

  <rect x="0" y="0" width="1200" height="630" rx="28" fill="url(#bgBurst)"/>
  <rect x="30" y="30" width="1140" height="570" rx="22" stroke="#3D556B" stroke-opacity="0.6"/>

  <text x="70" y="95" fill="#B9CFDE" font-family="Arial, sans-serif" font-size="24">Multiple search terms checked together, with short random pauses between each term</text>

  <rect x="70" y="130" width="1060" height="2" fill="#2F4A60"/>

  <g transform="translate(145 175)">
    <text x="0" y="20" fill="#B9CFDE" font-family="Arial, sans-serif" font-size="18" font-weight="600">Round 1</text>
    <rect x="0" y="40" width="175" height="60" rx="12" fill="url(#termBurst)"/>
    <text x="87.5" y="76" text-anchor="middle" fill="#0E1A2B" font-family="Arial, sans-serif" font-size="23" font-weight="700">Hat</text>
    <rect x="0" y="112" width="175" height="60" rx="12" fill="url(#termBurst)"/>
    <text x="87.5" y="148" text-anchor="middle" fill="#0E1A2B" font-family="Arial, sans-serif" font-size="23" font-weight="700">Umbrella</text>
    <rect x="0" y="184" width="175" height="60" rx="12" fill="url(#termBurst)"/>
    <text x="87.5" y="220" text-anchor="middle" fill="#0E1A2B" font-family="Arial, sans-serif" font-size="23" font-weight="700">Bottle</text>
  </g>

  <g transform="translate(515 175)">
    <text x="0" y="20" fill="#B9CFDE" font-family="Arial, sans-serif" font-size="18" font-weight="600">Round 2</text>
    <rect x="0" y="40" width="175" height="60" rx="12" fill="url(#termBurst)"/>
    <text x="87.5" y="76" text-anchor="middle" fill="#0E1A2B" font-family="Arial, sans-serif" font-size="23" font-weight="700">Hat</text>
    <rect x="0" y="112" width="175" height="60" rx="12" fill="url(#termBurst)"/>
    <text x="87.5" y="148" text-anchor="middle" fill="#0E1A2B" font-family="Arial, sans-serif" font-size="23" font-weight="700">Umbrella</text>
    <rect x="0" y="184" width="175" height="60" rx="12" fill="url(#termBurst)"/>
    <text x="87.5" y="220" text-anchor="middle" fill="#0E1A2B" font-family="Arial, sans-serif" font-size="23" font-weight="700">Bottle</text>
  </g>

  <g transform="translate(885 175)">
    <text x="0" y="20" fill="#B9CFDE" font-family="Arial, sans-serif" font-size="18" font-weight="600">Round 3</text>
    <rect x="0" y="40" width="175" height="60" rx="12" fill="url(#termBurst)"/>
    <text x="87.5" y="76" text-anchor="middle" fill="#0E1A2B" font-family="Arial, sans-serif" font-size="23" font-weight="700">Hat</text>
    <rect x="0" y="112" width="175" height="60" rx="12" fill="url(#termBurst)"/>
    <text x="87.5" y="148" text-anchor="middle" fill="#0E1A2B" font-family="Arial, sans-serif" font-size="23" font-weight="700">Umbrella</text>
    <rect x="0" y="184" width="175" height="60" rx="12" fill="url(#termBurst)"/>
    <text x="87.5" y="220" text-anchor="middle" fill="#0E1A2B" font-family="Arial, sans-serif" font-size="23" font-weight="700">Bottle</text>
  </g>

  <text x="415" y="260" text-anchor="middle" fill="#B9CFDE" font-family="Arial, sans-serif" font-size="18" font-weight="600">30-60s delay</text>
  <path d="M335 285 L495 285" stroke="#9EB7C7" stroke-width="3" marker-end="url(#arrowBurst)"/>

  <text x="785" y="260" text-anchor="middle" fill="#B9CFDE" font-family="Arial, sans-serif" font-size="18" font-weight="600">30-60s delay</text>
  <path d="M705 285 L865 285" stroke="#9EB7C7" stroke-width="3" marker-end="url(#arrowBurst)"/>

  <rect x="70" y="500" width="1060" height="48" rx="14" fill="#143244" stroke="#2F556C"/>
  <text x="600" y="531" text-anchor="middle" fill="#DFF6F0" font-family="Arial, sans-serif" font-size="22" font-weight="600">Result: multiple terms checked in each round for faster detection</text>
</svg>
